o ScreenHighlight
v 0.32 0 0.25
v 0.31657395614066075 0 0.27163118960624633
v 0.36412678195541842 0 0.28708203932499371
v 0.37 0 0.25
v 0.30663118960624636 0 0.29114496766047315
v 0.34708203932499371 0 0.32053423027509675
v 0.29114496766047315 0 0.30663118960624636
v 0.32053423027509675 0 0.34708203932499371
v 0.27163118960624633 0 0.31657395614066075
v 0.28708203932499371 0 0.36412678195541842
v 0.25 0 0.32
v 0.25 0 0.37
v -0.25 0 0.32
v -0.25 0 0.37
v -0.27163118960624633 0 0.31657395614066075
v -0.28708203932499365 0 0.36412678195541842
v -0.2911449676604731 0 0.30663118960624636
v -0.32053423027509675 0 0.34708203932499371
v -0.3066311896062463 0 0.29114496766047315
v -0.34708203932499371 0 0.32053423027509675
v -0.31657395614066075 0 0.27163118960624633
v -0.36412678195541842 0 0.28708203932499371
v -0.32 0 0.25
v -0.37 0 0.25
v -0.32 0 -0.25
v -0.37 0 -0.24999999999999997
v -0.31657395614066075 0 -0.27163118960624633
v -0.36412678195541842 0 -0.28708203932499371
v -0.30663118960624636 0 -0.2911449676604731
v -0.34708203932499371 0 -0.32053423027509675
v -0.29114496766047315 0 -0.3066311896062463
v -0.32053423027509675 0 -0.34708203932499371
v -0.27163118960624633 0 -0.31657395614066075
v -0.28708203932499371 0 -0.36412678195541842
v -0.25 0 -0.32
v -0.25 0 -0.37
v 0.25 0 -0.32
v 0.24999999999999997 0 -0.37
v 0.27163118960624633 0 -0.31657395614066075
v 0.28708203932499365 0 -0.36412678195541842
v 0.2911449676604731 0 -0.30663118960624636
v 0.32053423027509675 0 -0.34708203932499371
v 0.3066311896062463 0 -0.29114496766047315
v 0.34708203932499371 0 -0.32053423027509681
v 0.31657395614066075 0 -0.27163118960624633
v 0.36412678195541842 0 -0.28708203932499371
v 0.32 0 -0.25
v 0.37 0 -0.25000000000000006
vn 0 1 0
g ScreenHighlight
f 1//1 2//1 3//1 4//1
f 2//1 5//1 6//1 3//1
f 5//1 7//1 8//1 6//1
f 7//1 9//1 10//1 8//1
f 9//1 11//1 12//1 10//1
f 11//1 13//1 14//1 12//1
f 13//1 15//1 16//1 14//1
f 15//1 17//1 18//1 16//1
f 17//1 19//1 20//1 18//1
f 19//1 21//1 22//1 20//1
f 21//1 23//1 24//1 22//1
f 23//1 25//1 26//1 24//1
f 25//1 27//1 28//1 26//1
f 27//1 29//1 30//1 28//1
f 29//1 31//1 32//1 30//1
f 31//1 33//1 34//1 32//1
f 33//1 35//1 36//1 34//1
f 35//1 37//1 38//1 36//1
f 37//1 39//1 40//1 38//1
f 39//1 41//1 42//1 40//1
f 41//1 43//1 44//1 42//1
f 43//1 45//1 46//1 44//1
f 45//1 47//1 48//1 46//1
f 47//1 1//1 4//1 48//1
