o ScreenHighlight
v 0.245 0 0.18
v 0.24181867355918496 0 0.20008610463437157
v 0.27510565162951534 0 0.21090169943749473
v 0.28 0 0.18
v 0.23258610463437157 0 0.21820604139901076
v 0.26090169943749475 0 0.23877852522924731
v 0.21820604139901076 0 0.23258610463437157
v 0.23877852522924731 0 0.26090169943749475
v 0.20008610463437157 0 0.24181867355918496
v 0.21090169943749473 0 0.27510565162951534
v 0.18 0 0.245
v 0.18 0 0.28
v -0.18 0 0.245
v -0.18 0 0.28
v -0.20008610463437157 0 0.241818673559185
v -0.21090169943749473 0 0.27510565162951539
v -0.21820604139901073 0 0.23258610463437157
v -0.23877852522924731 0 0.26090169943749475
v -0.23258610463437157 0 0.21820604139901076
v -0.26090169943749475 0 0.23877852522924731
v -0.24181867355918496 0 0.20008610463437157
v -0.27510565162951534 0 0.21090169943749476
v -0.245 0 0.18
v -0.28 0 0.18
v -0.245 0 -0.18
v -0.28 0 -0.18
v -0.24181867355918496 0 -0.2000861046343716
v -0.27510565162951534 0 -0.21090169943749476
v -0.23258610463437157 0 -0.21820604139901073
v -0.26090169943749475 0 -0.23877852522924731
v -0.21820604139901076 0 -0.23258610463437157
v -0.23877852522924731 0 -0.26090169943749475
v -0.2000861046343716 0 -0.24181867355918496
v -0.21090169943749476 0 -0.27510565162951534
v -0.18 0 -0.245
v -0.18000000000000002 0 -0.28
v 0.18 0 -0.245
v 0.17999999999999997 0 -0.28
v 0.20008610463437157 0 -0.241818673559185
v 0.21090169943749471 0 -0.27510565162951539
v 0.21820604139901073 0 -0.23258610463437157
v 0.23877852522924728 0 -0.26090169943749475
v 0.23258610463437157 0 -0.21820604139901076
v 0.26090169943749475 0 -0.23877852522924734
v 0.24181867355918496 0 -0.2000861046343716
v 0.27510565162951534 0 -0.21090169943749476
v 0.245 0 -0.18000000000000002
v 0.28 0 -0.18000000000000002
vn 0 1 0
g ScreenHighlight
f 1//1 2//1 3//1 4//1
f 2//1 5//1 6//1 3//1
f 5//1 7//1 8//1 6//1
f 7//1 9//1 10//1 8//1
f 9//1 11//1 12//1 10//1
f 11//1 13//1 14//1 12//1
f 13//1 15//1 16//1 14//1
f 15//1 17//1 18//1 16//1
f 17//1 19//1 20//1 18//1
f 19//1 21//1 22//1 20//1
f 21//1 23//1 24//1 22//1
f 23//1 25//1 26//1 24//1
f 25//1 27//1 28//1 26//1
f 27//1 29//1 30//1 28//1
f 29//1 31//1 32//1 30//1
f 31//1 33//1 34//1 32//1
f 33//1 35//1 36//1 34//1
f 35//1 37//1 38//1 36//1
f 37//1 39//1 40//1 38//1
f 39//1 41//1 42//1 40//1
f 41//1 43//1 44//1 42//1
f 43//1 45//1 46//1 44//1
f 45//1 47//1 48//1 46//1
f 47//1 1//1 4//1 48//1
